# xmcd CD database file
#
# Track frame offsets:
#	150
#	18825
#	34275
#
# Disc length: 781 seconds
#
# Revision: 0
# Processed by: cddbd v1.5.1PL0 Copyright (c) Steve Scherf et al.
# Submitted via: CDex 1.51
#
DISCID=1a030b03
DTITLE=LINDBERG - Teenage Blue (Single)
DYEAR=2002
DGENRE=Pop
TTITLE0=Teenage Blue
TTITLE1=I Love It
TTITLE2=Modern Woman Weekend
EXTD=YEAR: 2002
EXTT0=
EXTT1=
EXTT2=
PLAYORDER=
